<?xml version="1.0" encoding="UTF-8"?>
<svg width="28px" height="28px" viewBox="0 0 28 28" version="1.1" xmlns="http://www.w3.org/2000/svg" xmlns:xlink="http://www.w3.org/1999/xlink">
    <!-- Generator: Sketch 51.3 (57544) - http://www.bohemiancoding.com/sketch -->
    <title>icon-close</title>
    <desc>Created with Sketch.</desc>
    <defs></defs>
    <g id="Page-1" stroke="none" stroke-width="1" fill="none" fill-rule="evenodd" opacity="0.5">
        <g id="Checkout-Additional-Features-1" transform="translate(-1076.000000, -118.000000)" fill="#000000" fill-rule="nonzero">
            <path d="M1091.209,132.161165 L1103.78299,144.735154 C1104.07234,145.024505 1104.07234,145.493636 1103.78299,145.782987 C1103.49364,146.072338 1103.02451,146.072338 1102.73515,145.782987 L1090.16117,133.208998 L1077.58718,145.782987 C1077.29783,146.072338 1076.82869,146.072338 1076.53934,145.782987 C1076.24999,145.493636 1076.24999,145.024505 1076.53934,144.735154 L1089.11333,132.161165 L1076.53934,119.587176 C1076.24999,119.297825 1076.24999,118.828695 1076.53934,118.539344 C1076.82869,118.249993 1077.29783,118.249993 1077.58718,118.539344 L1090.16117,131.113333 L1102.73515,118.539344 C1103.02451,118.249993 1103.49364,118.249993 1103.78299,118.539344 C1104.07234,118.828695 1104.07234,119.297825 1103.78299,119.587176 L1091.209,132.161165 Z" id="icon-close"></path>
        </g>
    </g>
</svg>