<svg width="16" height="16" viewBox="0 0 16 16" fill="none" xmlns="http://www.w3.org/2000/svg">
<circle cx="8" cy="8" r="8" fill="#7EC77B"/>
<path d="M8.06536 3C8.30937 3 8.51561 3.07032 8.6841 3.21097C8.85839 3.34693 8.94553 3.51336 8.94553 3.71027C8.94553 3.90717 8.85839 4.07595 8.6841 4.2166C8.51561 4.35724 8.30937 4.42757 8.06536 4.42757C7.82135 4.42757 7.6122 4.35724 7.43791 4.2166C7.26362 4.07595 7.17647 3.90717 7.17647 3.71027C7.17647 3.51336 7.26071 3.34693 7.42919 3.21097C7.60349 3.07032 7.81554 3 8.06536 3ZM8.78867 6.3685V11.5443C8.78867 11.9475 8.82353 12.2171 8.89325 12.353C8.96877 12.4843 9.07625 12.5827 9.21569 12.6484C9.36093 12.714 9.62237 12.7468 10 12.7468V13H6.122V12.7468C6.51126 12.7468 6.77269 12.7164 6.90632 12.6554C7.03994 12.5945 7.14452 12.4937 7.22004 12.353C7.30138 12.2124 7.34205 11.9428 7.34205 11.5443V9.06188C7.34205 8.36334 7.3159 7.91092 7.26362 7.70464C7.22295 7.55462 7.15904 7.45148 7.0719 7.39522C6.98475 7.33427 6.86565 7.3038 6.7146 7.3038C6.55192 7.3038 6.35439 7.33896 6.122 7.40928L6 7.15612L8.40523 6.3685H8.78867Z" fill="white"/>
</svg>
